<?xml version="1.0" encoding="UTF-8"?>
<svg id="Warstwa_1" data-name="Warstwa 1" xmlns="http://www.w3.org/2000/svg" viewBox="0 0 186.48 141.42">
  <path d="M93.24,20.4c-15.14,0-27.46,12.32-27.46,27.46s12.32,27.46,27.46,27.46,27.46-12.32,27.46-27.46-12.32-27.46-27.46-27.46ZM93.24,65.59c-9.78,0-17.73-7.95-17.73-17.73s7.95-17.73,17.73-17.73,17.73,7.95,17.73,17.73-7.95,17.73-17.73,17.73Z"/>
  <path d="M185.59,68.73c-9.56-21.43-23.47-39.16-40.22-51.26C129.55,6.04,111.53,0,93.24,0,55.19,0,19.8,26.34.88,68.73l-.88,1.98.88,1.98c18.91,42.39,54.3,68.73,92.35,68.73s73.44-26.34,92.35-68.73l.88-1.98-.88-1.98ZM93.24,131.69c-13.02,0-25.72-3.52-37.41-10.01,4.98-16.19,20.23-27.64,37.42-27.64s32.43,11.42,37.41,27.64c-11.7,6.49-24.4,10.01-37.42,10.01ZM139.1,116.36c-6.96-18.92-25.2-32.04-45.85-32.04s-38.88,13.15-45.85,32.06c-14.88-10.56-27.67-26.19-36.73-45.66C28.19,33.03,59.66,9.73,93.24,9.73c16.23,0,32.29,5.4,46.44,15.63,14.85,10.73,27.31,26.38,36.13,45.35-9.05,19.47-21.84,35.09-36.71,45.65Z"/>
</svg>