<?xml version="1.0" encoding="UTF-8"?>
<svg id="Warstwa_1" data-name="Warstwa 1" xmlns="http://www.w3.org/2000/svg" viewBox="0 0 674.12 80.96">
  <path d="M174.12,15.1c-3.93-2.55-8.45-3.83-13.56-3.83s-9.6,1.28-13.54,3.83c-3.95,2.55-7.04,6.07-9.29,10.54-2.24,4.48-3.37,9.62-3.37,15.42s1.12,10.87,3.37,15.34c2.24,4.48,5.34,7.99,9.29,10.54,3.95,2.55,8.46,3.83,13.54,3.83s9.63-1.28,13.56-3.83c3.93-2.55,7.02-6.07,9.27-10.54,2.24-4.47,3.37-9.59,3.37-15.34s-1.12-10.94-3.37-15.42c-2.24-4.47-5.33-7.99-9.27-10.54ZM177.15,53.71c-1.75,3.46-4.09,6.08-7,7.88-2.92,1.79-6.11,2.69-9.6,2.69s-6.68-.9-9.6-2.69c-2.92-1.79-5.25-4.42-7-7.88-1.75-3.46-2.63-7.67-2.63-12.65s.88-9.24,2.63-12.71c1.75-3.47,4.09-6.1,7-7.89,2.91-1.79,6.11-2.69,9.6-2.69s6.68.9,9.6,2.69c2.91,1.79,5.25,4.42,7,7.89,1.75,3.47,2.63,7.71,2.63,12.71s-.88,9.2-2.63,12.65Z"/>
  <polygon points="227.12 28.99 218.61 28.99 199.61 47.37 199.54 47.37 199.54 12.2 192.96 12.2 192.96 69.85 199.54 69.85 199.54 54.76 204.1 50.62 220.08 69.85 228.44 69.85 209.13 46.48 227.12 28.99"/>
  <path d="M234.47,12.04c-1.24,0-2.3.44-3.17,1.31-.88.88-1.32,1.94-1.32,3.17s.44,2.29,1.32,3.17,1.93,1.32,3.17,1.32,2.29-.44,3.17-1.32c.88-.88,1.32-1.93,1.32-3.17s-.44-2.29-1.32-3.17c-.88-.88-1.93-1.31-3.17-1.31Z"/>
  <rect x="231.19" y="28.99" width="6.58" height="40.86"/>
  <path d="M271.01,30.77c-2.79-1.8-6.07-2.71-9.87-2.71s-6.81.92-9.6,2.77c-2.79,1.84-4.97,4.38-6.54,7.6-1.57,3.22-2.36,6.91-2.36,11.07s.75,7.76,2.24,10.97c1.5,3.21,3.66,5.73,6.48,7.56,2.82,1.83,6.24,2.75,10.23,2.75,2.97,0,5.67-.55,8.11-1.66s4.47-2.65,6.09-4.62c1.62-1.97,2.7-4.26,3.21-6.87h-6.58c-.62,2.12-1.85,3.84-3.69,5.19-1.84,1.34-4.22,2.01-7.14,2.01-3.87,0-6.88-1.25-9.02-3.75-2.14-2.5-3.29-5.75-3.44-9.75h30.57v-1.82c0-4.23-.75-7.96-2.26-11.18s-3.66-5.74-6.44-7.54ZM249.23,45.67c.36-3.59,1.6-6.44,3.71-8.55,2.11-2.12,4.85-3.17,8.2-3.17s6.1,1.06,8.24,3.17,3.39,4.96,3.75,8.55h-23.91Z"/>
  <path d="M334.65,29.84c-2.05-1.08-4.33-1.62-6.83-1.62-3.04,0-5.67.7-7.89,2.11s-3.88,3.15-4.99,5.24c-.85-2.06-2.32-3.8-4.41-5.22-2.09-1.42-4.53-2.13-7.31-2.13-2.5,0-4.82.63-6.96,1.89-2.14,1.26-3.86,3.1-5.15,5.49v-6.62h-6.42v40.86h6.58v-24.92c0-2.35.46-4.31,1.39-5.9.93-1.59,2.15-2.78,3.66-3.58,1.51-.8,3.12-1.2,4.82-1.2,2.48,0,4.53.74,6.17,2.22,1.64,1.48,2.46,3.45,2.46,5.9v27.47h6.58v-26c0-2.76.86-5.05,2.57-6.87,1.72-1.82,4.07-2.73,7.06-2.73,2.35,0,4.41.68,6.19,2.03,1.78,1.35,2.67,3.62,2.67,6.79v26.77h6.58v-26.77c0-3.35-.61-6.13-1.84-8.32-1.23-2.19-2.86-3.83-4.91-4.91Z"/>
  <path d="M407.26,40.09c2.21-2.84,3.31-6.31,3.31-10.41,0-5.39-1.76-9.65-5.28-12.79-3.52-3.13-8.29-4.7-14.3-4.7h-21.4v57.65h6.96v-22.63h14.43l12.15,22.63h8.12l-12.96-23.76c3.77-1.16,6.75-3.16,8.96-6ZM390.84,41.02h-14.28v-22.63h14.2c4,0,7.15,1.01,9.46,3.02s3.46,4.77,3.46,8.28-1.14,6.28-3.42,8.3-5.42,3.04-9.42,3.04Z"/>
  <path d="M442.04,30.77c-2.79-1.8-6.07-2.71-9.87-2.71s-6.81.92-9.6,2.77c-2.79,1.84-4.97,4.38-6.54,7.6-1.57,3.22-2.36,6.91-2.36,11.07s.75,7.76,2.24,10.97c1.5,3.21,3.66,5.73,6.48,7.56,2.82,1.83,6.24,2.75,10.23,2.75,2.97,0,5.67-.55,8.11-1.66s4.47-2.65,6.09-4.62c1.62-1.97,2.7-4.26,3.21-6.87h-6.58c-.62,2.12-1.85,3.84-3.69,5.19-1.84,1.34-4.22,2.01-7.14,2.01-3.87,0-6.88-1.25-9.02-3.75-2.14-2.5-3.29-5.75-3.44-9.75h30.57v-1.82c0-4.23-.75-7.96-2.26-11.18s-3.66-5.74-6.44-7.54ZM420.25,45.67c.36-3.59,1.6-6.44,3.71-8.55,2.11-2.12,4.85-3.17,8.2-3.17s6.1,1.06,8.24,3.17,3.39,4.96,3.75,8.55h-23.91Z"/>
  <polygon points="490.19 28.99 481.68 28.99 462.68 47.37 462.6 47.37 462.6 12.2 456.02 12.2 456.02 69.85 462.6 69.85 462.6 54.76 467.17 50.62 483.15 69.85 491.5 69.85 472.2 46.48 490.19 28.99"/>
  <path d="M510.82,28.37c-2.55,0-4.64.64-6.27,1.93-1.62,1.29-2.81,2.99-3.56,5.11h-.15v-6.42h-6.27v40.86h6.58v-25.15c0-3.46.84-5.98,2.51-7.58s3.65-2.4,5.92-2.4c.95,0,1.8.06,2.53.17.74.12,1.23.21,1.49.29v-6.58c-.26-.05-.64-.1-1.14-.16-.5-.05-1.05-.08-1.64-.08Z"/>
  <path d="M544.46,52.9c0,4.13-1.04,7.11-3.13,8.94-2.09,1.83-4.63,2.75-7.62,2.75s-5.42-.9-7.12-2.69c-1.7-1.79-2.55-4.46-2.55-7.99v-24.92h-6.58v25.38c0,3.61.68,6.62,2.03,9.04,1.35,2.41,3.17,4.22,5.46,5.42,2.28,1.2,4.79,1.8,7.53,1.8,2.58,0,4.89-.55,6.95-1.64,2.05-1.1,3.79-2.81,5.2-5.13v6h6.42V28.99h-6.58v23.91Z"/>
  <path d="M568.27,17.85h-6.58v11.14h-7.27v5.65h7.27v26c0,6.14,3.48,9.21,10.45,9.21h4.41v-5.65h-3.79c-1.68,0-2.84-.32-3.5-.95-.66-.63-.99-1.73-.99-3.31v-25.3h8.28v-5.65h-8.28v-11.14Z"/>
  <path d="M606.08,30.77c-2.79-1.8-6.07-2.71-9.87-2.71s-6.81.92-9.6,2.77c-2.79,1.84-4.97,4.38-6.54,7.6-1.57,3.22-2.36,6.91-2.36,11.07s.75,7.76,2.24,10.97c1.5,3.21,3.66,5.73,6.48,7.56,2.82,1.83,6.24,2.75,10.23,2.75,2.97,0,5.67-.55,8.11-1.66s4.47-2.65,6.09-4.62c1.62-1.97,2.7-4.26,3.21-6.87h-6.58c-.62,2.12-1.85,3.84-3.69,5.19-1.84,1.34-4.22,2.01-7.14,2.01-3.87,0-6.88-1.25-9.02-3.75-2.14-2.5-3.29-5.75-3.44-9.75h30.57v-1.82c0-4.23-.75-7.96-2.26-11.18s-3.66-5.74-6.44-7.54ZM584.29,45.67c.36-3.59,1.6-6.44,3.71-8.55,2.11-2.12,4.85-3.17,8.2-3.17s6.1,1.06,8.24,3.17,3.39,4.96,3.75,8.55h-23.91Z"/>
  <path d="M636.31,28.37c-2.55,0-4.64.64-6.27,1.93-1.62,1.29-2.81,2.99-3.56,5.11h-.15v-6.42h-6.27v40.86h6.58v-25.15c0-3.46.84-5.98,2.51-7.58s3.65-2.4,5.92-2.4c.95,0,1.8.06,2.53.17.74.12,1.23.21,1.49.29v-6.58c-.26-.05-.64-.1-1.14-.16-.5-.05-1.05-.08-1.64-.08Z"/>
  <path d="M669.92,31.91c-2.8-2.46-6.58-3.69-11.36-3.69-3.22,0-6.06.57-8.51,1.7-2.45,1.13-4.39,2.68-5.8,4.62-1.42,1.95-2.19,4.17-2.32,6.68h6.69c.15-2.04,1.14-3.75,2.96-5.13,1.82-1.38,4.15-2.07,6.98-2.07s5.09.72,6.67,2.17c1.59,1.45,2.38,3.28,2.38,5.49v.39c0,1.03-.32,1.75-.95,2.17s-1.7.71-3.19.89c-1.5.18-3.55.45-6.15.81-2.04.26-4.03.61-5.98,1.04-1.95.44-3.69,1.08-5.22,1.92-1.54.84-2.76,1.99-3.68,3.46-.92,1.47-1.37,3.38-1.37,5.73,0,4.08,1.36,7.16,4.08,9.25,2.72,2.09,6.11,3.13,10.16,3.13,2.48,0,4.52-.33,6.13-.99,1.61-.66,2.89-1.48,3.85-2.48.95-.99,1.68-1.98,2.17-2.96h.15v5.8h6.5v-28.17c0-4.05-1.4-7.3-4.2-9.77ZM667.62,54.37c0,1.78-.39,3.44-1.16,4.99-.77,1.55-2,2.8-3.68,3.77-1.68.97-3.86,1.45-6.54,1.45s-4.66-.54-6.17-1.62c-1.51-1.08-2.26-2.58-2.26-4.49,0-1.55.44-2.78,1.32-3.7.88-.91,2.02-1.62,3.42-2.13,1.41-.5,2.9-.86,4.47-1.06,2.35-.34,4.58-.69,6.69-1.06,2.11-.37,3.42-.79,3.91-1.26v5.11Z"/>
  <path d="M53.27,11.54c-8.84,0-16.03,7.19-16.03,16.03s7.19,16.03,16.03,16.03,16.03-7.19,16.03-16.03-7.19-16.03-16.03-16.03ZM53.27,37.09c-5.25,0-9.53-4.27-9.53-9.53s4.27-9.53,9.53-9.53,9.53,4.27,9.53,9.53-4.27,9.53-9.53,9.53Z"/>
  <path d="M83.04,9.97C74.01,3.45,63.71,0,53.26,0,31.55,0,11.37,15,.59,39.16l-.59,1.32.59,1.32c10.78,24.15,30.96,39.16,52.67,39.16s41.9-15,52.67-39.16l.59-1.32-.59-1.32c-5.44-12.2-13.36-22.29-22.9-29.18ZM32.72,69.07c2.87-8.74,11.19-14.89,20.55-14.89s17.67,6.14,20.54,14.89c-6.44,3.5-13.41,5.39-20.55,5.39s-14.11-1.89-20.55-5.39ZM79.45,65.5c-4.17-10.56-14.51-17.82-26.18-17.82s-21.99,7.28-26.17,17.84c-8.06-5.88-15-14.43-19.97-25.03C16.97,19.48,34.54,6.5,53.26,6.5c9.07,0,18.05,3.02,25.96,8.74,8.27,5.97,15.22,14.68,20.17,25.24-4.97,10.59-11.9,19.14-19.95,25.02Z"/>
</svg>