<svg xmlns="http://www.w3.org/2000/svg" viewBox="0 0 1200 630" width="1200" height="630" role="img" aria-label="LinkedIn i personal branding">
  <defs>
    <linearGradient id="bg" x1="0" y1="0" x2="1" y2="1">
      <stop offset="0%" stop-color="#4338ca" />
      <stop offset="100%" stop-color="#312e81" />
    </linearGradient>
  </defs>
  <rect width="1200" height="630" fill="url(#bg)" />
  <circle cx="1080" cy="140" r="200" fill="#ffffff" opacity="0.06" />
  <circle cx="80" cy="540" r="160" fill="#ffffff" opacity="0.06" />
  <g transform="translate(150,165)">
    <rect x="0" y="0" width="280" height="280" rx="24" fill="#312e81" fill-opacity="0.35" stroke="#e0e7ff" stroke-width="10" />
    <circle cx="80" cy="90" r="26" fill="#e0e7ff" />
    <rect x="60" y="130" width="40" height="110" rx="10" fill="#e0e7ff" />
    <rect x="150" y="90" width="26" height="150" rx="10" fill="#e0e7ff" />
    <path d="M176 130 q0 -30 30 -30 q30 0 30 30 v80 h-30 v-70 q0 -12 -12 -12 q-12 0 -12 12 v70 h-6z" fill="#e0e7ff" />
  </g>
  <text x="480" y="270" font-family="Arial, sans-serif" font-size="52" font-weight="700" fill="#eef2ff">LinkedIn</text>
  <text x="480" y="330" font-family="Arial, sans-serif" font-size="30" fill="#c7d2fe">personal branding</text>
</svg>
